HIERARCHY
ROOT root
{
	OFFSET	0	13.1	24.9
	CHANNELS 6  Xposition Yposition Zposition Xrotation Yrotation Zrotation
	JOINT spine_1
	{
		OFFSET	0	9.99999	0
		CHANNELS 3  Xrotation Yrotation Zrotation
		JOINT spine_2
		{
			OFFSET	0	112	-10
			CHANNELS 3  Xrotation Yrotation Zrotation
			JOINT spine_3
			{
				OFFSET	0	206.5	19.3
				CHANNELS 3  Xrotation Yrotation Zrotation
				JOINT spine_4
				{
					OFFSET	0	110.4	14.6
					CHANNELS 3  Xrotation Yrotation Zrotation
					JOINT neck_1
					{
						OFFSET	0	71.8	-50.3
						CHANNELS 3  Xrotation Yrotation Zrotation
						JOINT neck_2
						{
							OFFSET	0	86.2	-25.8
							CHANNELS 3  Xrotation Yrotation Zrotation
							JOINT head_ee
							{
								OFFSET	0	179.8	-8.7
								CHANNELS 3  Xrotation Yrotation Zrotation
								End Site
								{
									OFFSET	1	0	0
								}
							}
						}
					}
					JOINT left_clavicle
					{
						OFFSET	-43.2	22.4	-70.8
						CHANNELS 3  Xrotation Yrotation Zrotation
						JOINT left_shoulder
						{
							OFFSET	-93.9	-5.79999	48.7
							CHANNELS 3  Xrotation Yrotation Zrotation
							JOINT left_elbow
							{
								OFFSET	-291.4	-30.8	15.2
								CHANNELS 3  Xrotation Yrotation Zrotation
								JOINT left_lowarm_twist
								{
									OFFSET	-110.7	-3.89999	13.6
									CHANNELS 3  Xrotation Yrotation Zrotation
									JOINT left_hand
									{
										OFFSET	-110.7	-3.89999	13.6
										CHANNELS 3  Xrotation Yrotation Zrotation
										JOINT left_ee
										{
											OFFSET	-80.8	-5.10001	12.1
											CHANNELS 3  Xrotation Yrotation Zrotation
											End Site
											{
												OFFSET	1	0	0
											}
										}
									}
								}
							}
						}
					}
					JOINT right_clavicle
					{
						OFFSET	43.2	22.4	-70.8
						CHANNELS 3  Xrotation Yrotation Zrotation
						JOINT right_shoulder
						{
							OFFSET	93.9	-5.79999	48.7
							CHANNELS 3  Xrotation Yrotation Zrotation
							JOINT right_elbow
							{
								OFFSET	291.4	-30.8	15.2
								CHANNELS 3  Xrotation Yrotation Zrotation
								JOINT right_lowarm_twist
								{
									OFFSET	110.7	-3.89999	13.6
									CHANNELS 3  Xrotation Yrotation Zrotation
									JOINT right_hand
									{
										OFFSET	110.7	-3.89999	13.6
										CHANNELS 3  Xrotation Yrotation Zrotation
										JOINT right_ee
										{
											OFFSET	80.8	-5.10001	12.1
											CHANNELS 3  Xrotation Yrotation Zrotation
											End Site
											{
												OFFSET	1	0	0
											}
										}
									}
								}
							}
						}
					}
				}
			}
		}
	}
	JOINT left_hip
	{
		OFFSET	-82.8	-127.5	0.300001
		CHANNELS 3  Xrotation Yrotation Zrotation
		JOINT left_knee
		{
			OFFSET	-28.2	-396.7	2.2
			CHANNELS 3  Xrotation Yrotation Zrotation
			JOINT left_ankle
			{
				OFFSET	-11.7	-411.3	35.4
				CHANNELS 3  Xrotation Yrotation Zrotation
				JOINT left_toes
				{
					OFFSET	0	-60	-88.6
					CHANNELS 3  Xrotation Yrotation Zrotation
					JOINT left_foot_ee
					{
						OFFSET	-22.5	-16.5	-42.2
						CHANNELS 3  Xrotation Yrotation Zrotation
						End Site
						{
							OFFSET	1	0	0
						}
					}
				}
			}
		}
	}
	JOINT right_hip
	{
		OFFSET	82.8	-127.5	0.300001
		CHANNELS 3  Xrotation Yrotation Zrotation
		JOINT right_knee
		{
			OFFSET	28.2	-396.7	2.2
			CHANNELS 3  Xrotation Yrotation Zrotation
			JOINT right_ankle
			{
				OFFSET	11.7	-411.3	35.4
				CHANNELS 3  Xrotation Yrotation Zrotation
				JOINT right_toes
				{
					OFFSET	0	-60	-88.6
					CHANNELS 3  Xrotation Yrotation Zrotation
					JOINT right_foot_ee
					{
						OFFSET	22.5	-16.5	-42.2
						CHANNELS 3  Xrotation Yrotation Zrotation
						End Site
						{
							OFFSET	1	0	0
						}
					}
				}
			}
		}
	}
}
MOTION
Frames: 13
Frame Time: 0.02
2071.3 687.931 -683.995 -152.296 -85.5752 -150.541 -1.47885 0.359724 0.7374 -1.4786 0.312073 0.758794 -1.47409 0.124822 0.810909 -1.47492 0.251319 0.781022 -11.0378 15.0369 4.19085 -11.2985 25.7128 8.14734 -0.0 0.0 -0.0 2.9567 18.7125 6.64169 -31.8586 -25.6173 63.8873 0.646231 -17.7512 0.100916 -6.52343 -0.275005 0.786827 3.92527 29.2653 35.0228 -0.0 0.0 -0.0 12.6874 23.105 -25.2615 9.89644 28.3266 -53.7341 2.92029 55.3344 -1.5313 54.122 1.27945 6.54007 7.42181 0.944732 -59.7604 0.0 0.0 0.0 36.1426 9.82626 -9.25806 -10.1631 0.283199 1.53197 -5.47449 15.9126 0.817021 -36.2355 0.0 0.0 -0.0 0.0 -0.0 -5.78592 22.0627 -6.58639 -28.4672 -0.0997162 -4.3228 32.098 -0.801023 4.12443 0.598243 -0.0 -0.0 0.0 0.0 0.0 
2091.09 683.629 -687.265 -151.979 -85.109 -149.671 -1.44446 0.373637 0.76599 -1.44419 0.32414 0.788211 -1.43933 0.130142 0.84226 -1.44022 0.261524 0.811139 -14.259 15.158 5.92729 -14.6923 25.3993 10.5861 -0.0 0.0 -0.0 2.6291 18.6952 6.14533 -30.87 -25.6793 64.0028 0.795154 -21.4992 0.150961 -5.22403 -0.213095 0.632641 3.88969 29.2539 34.776 -0.0 0.0 -0.0 12.806 23.9823 -25.4499 8.98634 29.0777 -54.2833 2.82641 54.4544 -1.45449 54.1927 1.28505 6.54719 7.52048 2.09128 -60.2038 0.0 0.0 0.0 35.7416 9.82667 -9.44648 -10.7127 0.290719 1.61596 -1.51233 16.2322 0.22414 -37.0303 0.0 0.0 -0.0 0.0 -0.0 -6.6884 21.684 -7.7545 -27.9936 -0.115672 -4.25186 32.1844 -2.16903 4.12572 0.73048 -0.0 -0.0 0.0 0.0 0.0 
2108.19 679.22 -690.405 -157.545 -85.4757 -155.002 -1.55113 0.292298 0.740645 -1.55086 0.244578 0.757742 -1.54726 0.0584467 0.794086 -1.54809 0.18312 0.774891 -15.0944 15.2815 6.58087 -15.5634 25.3935 11.4395 -0.0 0.0 -0.0 2.83252 18.7853 6.4563 -30.7774 -25.7408 63.2002 0.869163 -23.2944 0.179163 -4.50693 -0.180435 0.54697 3.76981 28.9359 33.9212 -0.0 0.0 -0.0 12.8033 24.4948 -25.3904 8.28096 28.9986 -53.8923 2.64506 52.6403 -1.3086 54.122 1.27945 6.54007 7.55502 2.32854 -60.4833 0.0 0.0 0.0 37.0835 9.34697 -9.83023 -15.3892 0.322052 2.3326 -0.0410359 16.0862 0.00606006 -37.1238 0.0 0.0 -0.0 0.0 -0.0 -7.74809 22.5027 -8.03297 -29.144 -0.0758987 -4.42394 32.5572 -1.08286 4.16956 1.24999 -0.0 -0.0 0.0 0.0 0.0 
2124.95 676.278 -698.266 -157.47 -84.7796 -154.454 -1.49263 0.166821 0.648291 -1.49241 0.125231 0.657592 -1.49072 -0.0331792 0.668587 -1.49134 0.0728256 0.665437 -16.1135 15.0778 6.88098 -16.6238 25.0054 11.8922 -0.0 0.0 -0.0 2.72088 18.7155 6.28494 -29.787 -26.1001 62.8519 1.01267 -26.64 0.239765 -3.70543 -0.145205 0.450747 3.52988 28.4048 32.2352 -0.0 0.0 -0.0 12.9542 24.3103 -25.759 7.48613 30.3 -54.3442 2.42479 50.2142 -1.13635 51.3982 1.07072 6.26055 7.57677 2.34986 -60.7646 0.0 0.0 0.0 38.1148 9.03642 -10.7021 -19.7638 0.298374 3.00323 2.51151 15.6658 -0.368262 -36.1931 0.0 0.0 -0.0 0.0 -0.0 -8.22901 22.5803 -8.34443 -29.632 -0.0579839 -4.49669 33.1179 -3.37293 4.21581 1.68611 -0.0 -0.0 0.0 0.0 0.0 
2144.84 670.611 -706.727 -168.706 -84.0685 -165.773 -1.45456 0.131859 0.712509 -1.45428 0.0862541 0.719455 -1.45293 -0.0851598 0.719585 -1.45365 0.0295509 0.724004 -18.4217 14.8313 6.61051 -19.1186 25.0459 12.1443 -0.0 0.0 -0.0 3.25649 18.2186 7.08374 -30.0421 -26.1366 61.6665 1.02109 -26.8305 0.243552 -3.02333 -0.116287 0.368482 3.32804 28.8998 30.9643 -0.0 0.0 -0.0 12.6261 22.7982 -25.1486 7.10387 31.2048 -56.3781 2.32576 49.036 -1.06091 50.6498 1.01572 6.18205 7.58677 2.3581 -60.8961 0.0 0.0 0.0 37.8038 7.9846 -11.104 -28.2721 0.106362 4.29358 12.1184 15.5975 -1.72567 -33.1582 0.0 0.0 -0.0 0.0 -0.0 -9.71141 24.5147 -7.16807 -31.621 0.0214271 -4.79157 33.1258 -5.21994 4.2131 2.17382 -0.0 -0.0 0.0 0.0 0.0 
2166.04 668.121 -715.774 -174.957 -83.0149 -172.387 -1.4412 0.0147147 0.825293 -1.44083 -0.0378289 0.824557 -1.44109 -0.23031 0.792645 -1.44195 -0.10224 0.819068 -19.5789 14.8956 7.60785 -20.3004 24.8281 13.376 -0.0 0.0 -0.0 3.0793 18.0745 6.80844 -28.9003 -26.517 62.0226 1.10297 -28.6504 0.281667 -2.49924 -0.0947359 0.305048 3.17046 28.2473 29.8409 -0.0 0.0 -0.0 12.4458 23.2142 -24.6935 5.77082 31.2922 -57.3623 2.15648 46.8842 -0.935161 49.4677 0.93097 6.05665 7.62569 2.12446 -61.6358 0.0 0.0 0.0 37.4714 7.5993 -11.3653 -32.9672 -0.0809742 4.98955 13.6543 14.1901 -1.92762 -32.9138 0.0 0.0 -0.0 0.0 -0.0 -10.4439 25.9536 -6.26792 -33.7986 0.120072 -5.11112 32.2513 -7.95432 4.12659 2.48072 -0.0 -0.0 0.0 0.0 0.0 
2182.21 668.057 -724.986 179.503 -81.8177 -177.715 -1.40677 -0.1009 0.786487 -1.40644 -0.150741 0.778473 -1.40831 -0.328844 0.721533 -1.40897 -0.210768 0.764409 -20.3288 14.7616 7.28094 -21.1247 24.8434 13.224 -0.0 0.0 -0.0 3.15494 18.1475 6.92642 -27.8234 -26.8186 62.0151 1.13391 -29.3222 0.296661 -2.17176 -0.0815654 0.265313 3.04473 28.3734 29.0482 -0.0 0.0 -0.0 12.3154 22.6692 -24.4437 3.87453 31.3613 -56.963 2.09124 46.0057 -0.887884 48.6931 0.876846 5.97354 7.60294 2.30256 -61.1669 0.0 0.0 0.0 37.332 7.29293 -11.7269 -36.2409 -0.245094 5.46485 16.6933 13.9852 -2.328 -31.9381 0.0 0.0 -0.0 0.0 -0.0 -11.3101 26.8008 -5.6969 -34.1634 0.137787 -5.16429 32.7959 -10.1688 4.19145 2.78271 -0.0 -0.0 0.0 0.0 0.0 
2207.64 670.785 -736.304 175.724 -81.0137 179.438 -1.53206 -0.148572 0.674406 -1.53183 -0.191184 0.663586 -1.53395 -0.342574 0.599619 -1.53436 -0.243578 0.646195 -21.1381 14.4481 7.40217 -21.9421 24.2915 13.3957 -0.0 0.0 -0.0 3.54512 18.2373 7.52603 -26.4014 -26.7803 62.0103 1.17982 -30.3029 0.319486 -2.34461 -0.0884887 0.286295 2.83671 28.3475 27.7176 -0.0 0.0 -0.0 11.9151 21.8496 -23.596 0.828657 30.9752 -56.3987 1.93569 43.7929 -0.778065 46.7439 0.745692 5.76129 7.62423 2.12071 -61.6182 0.0 0.0 0.0 34.6208 7.28821 -11.8166 -36.8401 -0.278073 5.55083 23.037 13.8108 -3.12294 -31.1918 0.0 0.0 -0.0 0.0 -0.0 -11.5589 27.1616 -6.36165 -35.7893 0.220843 -5.39985 32.2924 -13.0076 4.16004 2.7479 -0.0 -0.0 0.0 0.0 0.0 
2238.19 673.872 -746.823 172.359 -80.8158 176.563 -1.47801 -0.114012 0.544119 -1.47786 -0.148404 0.535762 -1.47918 -0.270332 0.485784 -1.47946 -0.19022 0.52238 -20.4195 14.7723 7.34019 -21.2199 24.8477 13.3068 -0.0 0.0 -0.0 3.63219 18.3104 7.66056 -25.1474 -27.1125 61.9165 1.26221 -32.0149 0.362125 -2.86544 -0.109733 0.349392 2.69918 26.9625 26.5898 -0.0 0.0 -0.0 11.3737 19.9171 -22.5088 -2.14311 30.331 -56.7901 1.72399 40.4942 -0.635954 45.3815 0.658356 5.61037 7.60276 2.66559 -60.8625 0.0 0.0 0.0 31.2847 7.51793 -11.3927 -38.1037 -0.350555 5.73098 29.6106 12.6042 -3.87046 -30.1316 0.0 0.0 -0.0 0.0 -0.0 -12.2545 27.8226 -5.80198 -38.3249 0.363653 -5.76235 34.9481 -17.1133 4.48329 2.75064 -0.0 -0.0 0.0 0.0 0.0 
2259.7 675.729 -752.762 163.21 -80.7158 167.658 -1.52821 -0.220293 0.348161 -1.52818 -0.242001 0.333438 -1.52962 -0.313914 0.266839 -1.52962 -0.267832 0.313067 -21.2784 14.4864 7.43736 -22.0978 24.3677 13.4845 -0.0 0.0 -0.0 3.7435 18.2934 7.83083 -22.2821 -27.887 61.8332 1.3308 -33.3927 0.399182 -3.45079 -0.134295 0.420076 2.54745 26.9146 25.6223 -0.0 0.0 -0.0 11.0408 18.8568 -21.8242 -4.68801 30.6287 -57.0792 1.52461 37.0594 -0.511035 43.3579 0.535345 5.38254 7.56472 2.55447 -60.4319 0.0 0.0 0.0 27.9903 7.80785 -11.2854 -38.997 -0.404191 5.85736 34.1951 12.0112 -4.34604 -29.4424 0.0 0.0 -0.0 0.0 -0.0 -12.2999 28.039 -5.52274 -40.2906 0.485359 -6.03891 37.5794 -21.0227 4.82184 3.16613 -0.0 -0.0 0.0 0.0 0.0 
2274.02 679.43 -759.179 160.008 -79.8857 164.603 -1.58563 -0.260104 0.00965578 -1.58567 -0.260192 -0.00691502 -1.58566 -0.25113 -0.0684218 -1.58558 -0.258784 -0.0279016 -21.1845 14.5932 7.30422 -22.0259 24.6248 13.3946 -0.0 0.0 -0.0 3.54255 19.2017 7.53798 -19.5957 -27.9843 61.7983 1.45095 -35.7048 0.467334 -3.71586 -0.145654 0.452002 2.48863 25.981 25.055 -0.0 0.0 -0.0 10.6979 17.7759 -21.1156 -6.85098 30.7672 -56.6635 1.43084 35.3267 -0.455651 41.9212 0.452947 5.21825 7.53241 2.42366 -60.0992 0.0 0.0 0.0 25.7436 8.11886 -10.8474 -38.2373 -0.35845 5.74993 37.2454 11.7442 -4.64031 -29.0194 0.0 0.0 -0.0 0.0 -0.0 -12.062 28.3523 -5.7227 -41.4281 0.560112 -6.19703 39.4707 -24.1896 5.09136 3.23879 -0.0 -0.0 0.0 0.0 0.0 
2299.82 679.871 -768.409 152.385 -79.4276 157.0 -1.82002 -0.147207 -0.206887 -1.82 -0.133744 -0.215835 -1.81946 -0.0777586 -0.241714 -1.81953 -0.114957 -0.2264 -21.1881 14.3433 6.78569 -22.0334 24.3908 12.8068 -0.0 0.0 -0.0 3.37667 21.1818 7.32334 -17.6232 -27.2595 61.3993 1.60202 -38.4323 0.55842 -4.76506 -0.192067 0.577854 2.27977 25.2918 23.5865 -0.0 0.0 -0.0 10.2298 15.5636 -20.1797 -9.15541 29.8882 -55.881 1.43077 35.3255 -0.455614 40.869 0.39523 5.09665 7.45968 2.30744 -59.221 0.0 0.0 0.0 22.421 7.91258 -10.1738 -38.5047 -0.374391 5.78782 39.2638 10.4361 -4.81455 -30.5954 0.0 0.0 -0.0 0.0 -0.0 -11.614 28.4221 -6.11436 -42.6699 0.645301 -6.36794 41.6687 -25.6753 5.34868 3.24424 -0.0 -0.0 0.0 0.0 0.0 
2315.45 678.59 -776.237 150.037 -79.6987 154.903 -1.90957 -0.227181 -0.363475 -1.90952 -0.203592 -0.377194 -1.90807 -0.106001 -0.415317 -1.90827 -0.170262 -0.393365 -22.5326 14.3226 7.47437 -23.4284 24.1977 13.7745 -0.0 0.0 -0.0 3.71022 21.6464 7.80989 -15.7767 -27.3732 60.369 1.66766 -39.5572 0.599727 -4.86638 -0.196671 0.589963 2.17648 24.5328 22.7573 -0.0 0.0 -0.0 9.69484 15.0563 -19.0137 -10.9831 28.9632 -55.7124 1.36024 33.9713 -0.415513 40.1957 0.359479 5.01831 7.56692 2.04062 -60.8813 0.0 0.0 0.0 21.0127 8.43528 -9.90759 -38.8032 -0.39239 5.83002 40.5845 8.51015 -4.91774 -29.912 0.0 0.0 -0.0 0.0 -0.0 -11.1489 28.6072 -5.97029 -42.9212 0.662995 -6.40231 42.2039 -25.3943 5.38821 3.48953 -0.0 -0.0 0.0 0.0 0.0 
